<svg xmlns="http://www.w3.org/2000/svg" viewBox="0 0 44.49 41.16"><defs><style>.cls-1{fill:#fff;}</style></defs><g id="Layer_2" data-name="Layer 2"><g id="Content"><path class="cls-1" d="M12.18,20.43c-.28,4,6,4.17,6,.17.07-3.78-5.84-4-6-.17Z"/><path class="cls-1" d="M1,19.67A1,1,0,0,0,.89,21.6,1,1,0,0,0,1,19.67Z"/><path class="cls-1" d="M12,3A1,1,0,0,0,11.1,1.3,1,1,0,0,0,12,3Z"/><path class="cls-1" d="M15,8.33a1.5,1.5,0,0,0-1.35-2.68A1.5,1.5,0,0,0,15,8.33Z"/><path class="cls-1" d="M4.79,12A1.23,1.23,0,0,0,6.15,9.92,1.23,1.23,0,0,0,4.79,12Z"/><path class="cls-1" d="M6.62,19.12a1.5,1.5,0,0,0-.17,3A1.5,1.5,0,0,0,6.62,19.12Z"/><path class="cls-1" d="M5,29.19a1.23,1.23,0,0,0,1.11,2.2A1.23,1.23,0,0,0,5,29.19Z"/><path class="cls-1" d="M10.78,16c1.89,1.29,3.86-1.72,1.93-2.94S8.84,14.8,10.78,16Z"/><path class="cls-1" d="M29.25,8.21A1.5,1.5,0,0,0,30.89,5.7,1.5,1.5,0,0,0,29.25,8.21Z"/><path class="cls-1" d="M32.32,2.92A1,1,0,0,0,33.39,1.3,1,1,0,0,0,32.32,2.92Z"/><path class="cls-1" d="M29.49,17.57c-3.89-.28-4.24,5.83-.35,6S33.37,17.73,29.49,17.57Z"/><path class="cls-1" d="M16,15.82c1.7,3.5,7.17.75,5.36-2.71S14.23,12.37,16,15.82Z"/><path class="cls-1" d="M39.53,12a1.23,1.23,0,0,0-1.11-2.2A1.23,1.23,0,0,0,39.53,12Z"/><path class="cls-1" d="M31.93,12.93c-2.06,1-.44,4.21,1.58,3.15S34,11.87,31.93,12.93Z"/><path class="cls-1" d="M22.13,2.47A1.24,1.24,0,0,0,22.27,0,1.24,1.24,0,0,0,22.13,2.47Z"/><path class="cls-1" d="M22.12,10.23c2.28.16,2.48-3.42.2-3.52S19.83,10.14,22.12,10.23Z"/><path class="cls-1" d="M12.56,28.23c2.06-1,.44-4.21-1.58-3.15S10.54,29.29,12.56,28.23Z"/><path class="cls-1" d="M23.26,12.81c-2.18,3.22,2.93,6.57,5,3.28S25.34,9.53,23.26,12.81Z"/><path class="cls-1" d="M28.47,25.35c-1.7-3.5-7.16-.75-5.35,2.7S30.27,28.8,28.47,25.35Z"/><path class="cls-1" d="M33.71,25.14c-1.89-1.29-3.86,1.72-1.93,2.95S35.64,26.37,33.71,25.14Z"/><path class="cls-1" d="M39.45,20.63a1.5,1.5,0,0,0-3-.17A1.5,1.5,0,0,0,39.45,20.63Z"/><path class="cls-1" d="M43.6,19.57a1,1,0,0,0-.11,1.93A1,1,0,0,0,43.6,19.57Z"/><path class="cls-1" d="M39.7,29.19a1.23,1.23,0,0,0-1.36,2.06A1.23,1.23,0,0,0,39.7,29.19Z"/><path class="cls-1" d="M12.17,38.24a1,1,0,0,0-1.07,1.62A1,1,0,0,0,12.17,38.24Z"/><path class="cls-1" d="M32.5,38.14a1,1,0,0,0,.87,1.73A1,1,0,0,0,32.5,38.14Z"/><path class="cls-1" d="M21.23,28.35c2.18-3.22-2.93-6.57-5-3.29S19.16,31.63,21.23,28.35Z"/><path class="cls-1" d="M15.24,33a1.5,1.5,0,0,0-1.64,2.51A1.5,1.5,0,0,0,15.24,33Z"/><path class="cls-1" d="M22.23,38.69a1.24,1.24,0,0,0-.14,2.47A1.24,1.24,0,0,0,22.23,38.69Z"/><path class="cls-1" d="M22.24,30.93c-2.28-.17-2.5,3.42-.21,3.52S24.53,31,22.24,30.93Z"/><path class="cls-1" d="M29.46,32.83a1.5,1.5,0,0,0,1.35,2.68A1.5,1.5,0,0,0,29.46,32.83Z"/></g></g></svg>