<svg xmlns="http://www.w3.org/2000/svg" viewBox="0 0 106.79 109.18"><defs><style>.cls-1{fill:#fff;}</style></defs><g id="Layer_2" data-name="Layer 2"><g id="Content"><path class="cls-1" d="M79.66,69.89l-20.1-37.8c-.09-.17-.19-.32-.28-.47A5,5,0,0,0,57,29.1h0a8.18,8.18,0,0,0-7.22,0h0a5,5,0,0,0-2.27,2.52c-.09.15-.19.3-.28.47l-20.1,37.8a5,5,0,0,0,2.06,6.73l2,1.06a5,5,0,0,0,6.72-2.06L53.39,46.48l15.5,29.14a5,5,0,0,0,6.72,2.06l2-1.06A5,5,0,0,0,79.66,69.89Z"/><circle class="cls-1" cx="53.43" cy="64.03" r="6.23"/><path class="cls-1" d="M26.85,106.6H21.46l-.89,2.58H17.72l4.87-13.56h3.16l4.87,13.56H27.74Zm-.73-2.17-2-5.67-2,5.67Z"/><path class="cls-1" d="M42.38,96.48a5.9,5.9,0,0,1,2.5,2.37,7.06,7.06,0,0,1,.88,3.58,7,7,0,0,1-.88,3.56,6.06,6.06,0,0,1-2.5,2.36,8.16,8.16,0,0,1-3.75.83H33.89V95.64h4.74A8,8,0,0,1,42.38,96.48Zm-.55,9.23A4.47,4.47,0,0,0,43,102.43a4.57,4.57,0,0,0-1.16-3.31,4.43,4.43,0,0,0-3.3-1.19H36.61v8.94h1.92A4.5,4.5,0,0,0,41.83,105.71Z"/><path class="cls-1" d="M57.55,106.6H52.16l-.89,2.58H48.42l4.87-13.56h3.16l4.87,13.56H58.45Zm-.73-2.17-2-5.67-2,5.67Z"/><path class="cls-1" d="M74,101.87a3.79,3.79,0,0,1-1.61,1.53,5.82,5.82,0,0,1-2.76.58H67.31v5.2H64.59V95.64h5a5.93,5.93,0,0,1,2.68.55,3.76,3.76,0,0,1,1.65,1.49,4.34,4.34,0,0,1,0,4.19Zm-2.82-.59a1.92,1.92,0,0,0,.54-1.45c0-1.32-.73-2-2.21-2H67.31v3.94h2.15A2.37,2.37,0,0,0,71.13,101.28Z"/><path class="cls-1" d="M89.07,95.64v13.54H86.36v-5.76h-5.8v5.76H77.84V95.64h2.72v5.57h5.8V95.64Z"/><path class="cls-1" d="M6.51,1.33a4.78,4.78,0,0,1,2,1.94,6.11,6.11,0,0,1,.7,3,6,6,0,0,1-.7,3,4.7,4.7,0,0,1-2,1.93,7.12,7.12,0,0,1-3.19.66H0V.66H3.32A7,7,0,0,1,6.51,1.33Zm.38,8.38A4.67,4.67,0,0,0,8.11,6.28,4.73,4.73,0,0,0,6.89,2.83,4.8,4.8,0,0,0,3.32,1.59H1.12v9.34h2.2A4.83,4.83,0,0,0,6.89,9.71Z"/><path class="cls-1" d="M19.21,7.92H11.94a3.72,3.72,0,0,0,.48,1.7,2.93,2.93,0,0,0,1.14,1.07,3.36,3.36,0,0,0,1.54.36,3.12,3.12,0,0,0,1.84-.53,2.49,2.49,0,0,0,1-1.43h1.19a3.67,3.67,0,0,1-1.37,2.09A4.19,4.19,0,0,1,15.1,12a4.39,4.39,0,0,1-2.21-.55,3.92,3.92,0,0,1-1.53-1.57,4.89,4.89,0,0,1-.55-2.38,5,5,0,0,1,.54-2.39,3.72,3.72,0,0,1,1.52-1.57A4.47,4.47,0,0,1,15.1,3a4.19,4.19,0,0,1,2.19.55A3.67,3.67,0,0,1,18.73,5,4.18,4.18,0,0,1,19.24,7C19.24,7.42,19.23,7.72,19.21,7.92Zm-1.5-2.58a2.61,2.61,0,0,0-1.12-1,3.33,3.33,0,0,0-1.54-.36,3,3,0,0,0-2.13.81,3.19,3.19,0,0,0-1,2.26H18.1A3.13,3.13,0,0,0,17.71,5.34Z"/><path class="cls-1" d="M24.4,10.77l3-7.66h1.19L25,11.86H23.76L20.25,3.11h1.2Z"/><path class="cls-1" d="M38,7.92H30.69a3.49,3.49,0,0,0,.48,1.7,2.83,2.83,0,0,0,1.13,1.07,3.36,3.36,0,0,0,1.54.36,3.12,3.12,0,0,0,1.84-.53,2.55,2.55,0,0,0,1-1.43h1.18a3.67,3.67,0,0,1-1.37,2.09,4.19,4.19,0,0,1-2.64.81,4.39,4.39,0,0,1-2.21-.55A3.92,3.92,0,0,1,30.1,9.87a4.89,4.89,0,0,1-.55-2.38,5,5,0,0,1,.54-2.39,3.72,3.72,0,0,1,1.52-1.57A4.47,4.47,0,0,1,33.84,3,4.19,4.19,0,0,1,36,3.53,3.67,3.67,0,0,1,37.47,5,4.18,4.18,0,0,1,38,7C38,7.42,38,7.72,38,7.92Zm-1.5-2.58a2.61,2.61,0,0,0-1.12-1,3.32,3.32,0,0,0-1.53-.36,3.05,3.05,0,0,0-2.14.81,3.19,3.19,0,0,0-1,2.26h6.15A3.13,3.13,0,0,0,36.45,5.34Z"/><path class="cls-1" d="M41.15,0V11.86H40V0Z"/><path class="cls-1" d="M45.31,11.44a4,4,0,0,1-1.55-1.57,4.79,4.79,0,0,1-.57-2.38,4.69,4.69,0,0,1,.58-2.38,4,4,0,0,1,1.57-1.57,4.72,4.72,0,0,1,4.46,0,3.89,3.89,0,0,1,1.57,1.57,4.79,4.79,0,0,1,.57,2.38,4.8,4.8,0,0,1-.57,2.37,4.09,4.09,0,0,1-1.59,1.58,4.57,4.57,0,0,1-2.25.55A4.46,4.46,0,0,1,45.31,11.44Zm3.83-.82a3,3,0,0,0,1.19-1.18,3.8,3.8,0,0,0,.46-1.95,3.91,3.91,0,0,0-.45-1.95,2.9,2.9,0,0,0-1.19-1.19,3.48,3.48,0,0,0-3.2,0,2.88,2.88,0,0,0-1.18,1.19,4,4,0,0,0-.44,2,4,4,0,0,0,.44,1.95,2.89,2.89,0,0,0,1.17,1.18,3.34,3.34,0,0,0,1.59.39A3.39,3.39,0,0,0,49.14,10.62Z"/><path class="cls-1" d="M56.42,3.57A3.93,3.93,0,0,1,58.58,3a4.17,4.17,0,0,1,2.14.56,3.77,3.77,0,0,1,1.49,1.57,5,5,0,0,1,.54,2.36,5,5,0,0,1-.54,2.37,3.82,3.82,0,0,1-1.49,1.59,4.07,4.07,0,0,1-2.14.56,3.91,3.91,0,0,1-2.15-.58A3.53,3.53,0,0,1,55.1,9.94V16H54V3.11h1.1V5A3.61,3.61,0,0,1,56.42,3.57Zm4.77,2A2.91,2.91,0,0,0,60,4.38,3.28,3.28,0,0,0,58.36,4a3.23,3.23,0,0,0-1.65.43,3.14,3.14,0,0,0-1.18,1.24,3.93,3.93,0,0,0-.43,1.86,4,4,0,0,0,.43,1.86,3.18,3.18,0,0,0,1.18,1.23,3.23,3.23,0,0,0,1.65.43A3.28,3.28,0,0,0,60,10.59a3,3,0,0,0,1.17-1.24,4,4,0,0,0,.42-1.88A4,4,0,0,0,61.19,5.59Z"/><path class="cls-1" d="M72.7,7.92H65.44a3.49,3.49,0,0,0,.48,1.7,2.93,2.93,0,0,0,1.14,1.07,3.33,3.33,0,0,0,1.54.36,3.12,3.12,0,0,0,1.84-.53,2.53,2.53,0,0,0,1-1.43h1.19a3.72,3.72,0,0,1-1.37,2.09A4.19,4.19,0,0,1,68.6,12a4.39,4.39,0,0,1-2.21-.55,3.92,3.92,0,0,1-1.53-1.57,4.9,4.9,0,0,1-.56-2.38,5,5,0,0,1,.55-2.39,3.72,3.72,0,0,1,1.52-1.57A4.44,4.44,0,0,1,68.6,3a4.24,4.24,0,0,1,2.19.55A3.74,3.74,0,0,1,72.23,5,4.18,4.18,0,0,1,72.74,7,6.63,6.63,0,0,1,72.7,7.92ZM71.21,5.34a2.67,2.67,0,0,0-1.12-1,3.33,3.33,0,0,0-1.54-.36,3,3,0,0,0-2.13.81,3.19,3.19,0,0,0-1,2.26H71.6A3.13,3.13,0,0,0,71.21,5.34Z"/><path class="cls-1" d="M74.82,5.11a3.79,3.79,0,0,1,1.5-1.57A4.21,4.21,0,0,1,78.48,3a4,4,0,0,1,2.08.56A3.46,3.46,0,0,1,81.92,5V0h1.13V11.86H81.92V9.91a3.31,3.31,0,0,1-1.31,1.5,3.91,3.91,0,0,1-2.15.58,4.14,4.14,0,0,1-2.16-.56,3.88,3.88,0,0,1-1.49-1.59,5,5,0,0,1-.53-2.37A5,5,0,0,1,74.82,5.11Zm6.67.52a3.07,3.07,0,0,0-1.18-1.24A3.16,3.16,0,0,0,78.67,4,3.31,3.31,0,0,0,77,4.38a2.89,2.89,0,0,0-1.16,1.21,4,4,0,0,0-.43,1.88,4,4,0,0,0,.43,1.88A3,3,0,0,0,77,10.59a3.31,3.31,0,0,0,1.67.42,3.16,3.16,0,0,0,1.64-.43,3.11,3.11,0,0,0,1.18-1.23,3.87,3.87,0,0,0,.43-1.86A3.81,3.81,0,0,0,81.49,5.63Z"/><path class="cls-1" d="M96.85,7a2.74,2.74,0,0,1,.66,1.83,2.8,2.8,0,0,1-1.67,2.6,4.54,4.54,0,0,1-2,.39H90V.66h3.77a3.82,3.82,0,0,1,2.59.78,2.62,2.62,0,0,1,.89,2,2.51,2.51,0,0,1-.56,1.69,3,3,0,0,1-1.44.91A2.62,2.62,0,0,1,96.85,7ZM91.13,5.61h2.61a2.56,2.56,0,0,0,1.75-.54,1.82,1.82,0,0,0,.62-1.48,1.79,1.79,0,0,0-.62-1.46,2.7,2.7,0,0,0-1.8-.53H91.13Zm4.57,4.73a1.94,1.94,0,0,0,.68-1.59,2,2,0,0,0-.71-1.61,2.88,2.88,0,0,0-1.92-.6H91.13v4.38H93.8A2.82,2.82,0,0,0,95.7,10.34Z"/><path class="cls-1" d="M106.79,3.11,101.59,16h-1.17l1.7-4.16L98.53,3.11h1.24l3,7.47,2.88-7.47Z"/></g></g></svg>