<svg xmlns="http://www.w3.org/2000/svg" viewBox="0 0 100.74 109.3"><defs><style>.cls-1{fill:#fff;}</style></defs><g id="Layer_2" data-name="Layer 2"><g id="Content"><path class="cls-1" d="M36.52,53.06a4.14,4.14,0,0,0,3.89,4.36h.22a4.13,4.13,0,1,0-4.12-4.36Z"/><path class="cls-1" d="M21.14,52a1.33,1.33,0,1,0,1.26,1.41A1.33,1.33,0,0,0,21.14,52Z"/><path class="cls-1" d="M36.26,29.11a1.33,1.33,0,1,0-1.8-.59,1.32,1.32,0,0,0,1.8.59Z"/><path class="cls-1" d="M40.45,36.41a2.06,2.06,0,1,0-2.77-.91,2.06,2.06,0,0,0,2.77.91Z"/><path class="cls-1" d="M26.36,41.43a1.7,1.7,0,1,0-.48-2.35h0A1.69,1.69,0,0,0,26.36,41.43Z"/><path class="cls-1" d="M28.87,51.26a2.06,2.06,0,1,0,1.94,2.17A2,2,0,0,0,28.87,51.26Z"/><path class="cls-1" d="M26.59,65.11a1.7,1.7,0,1,0,2.28.75,1.69,1.69,0,0,0-2.28-.75Z"/><path class="cls-1" d="M34.6,47a2.42,2.42,0,1,0-.7-3.36A2.41,2.41,0,0,0,34.6,47Z"/><path class="cls-1" d="M60,36.25a2.06,2.06,0,1,0-.6-2.85,2.07,2.07,0,0,0,.6,2.85Z"/><path class="cls-1" d="M64.23,29a1.34,1.34,0,1,0-.38-1.85h0A1.34,1.34,0,0,0,64.23,29Z"/><path class="cls-1" d="M60.33,49.13a4.13,4.13,0,1,0-.47,8.24h.23a4.13,4.13,0,0,0,4.13-4.13,4.17,4.17,0,0,0-1-2.75A4.09,4.09,0,0,0,60.33,49.13Z"/><path class="cls-1" d="M41.8,46.71a4.13,4.13,0,1,0-.43-1.84A4.18,4.18,0,0,0,41.8,46.71Z"/><path class="cls-1" d="M74.15,41.43a1.7,1.7,0,1,0-2.28-.75A1.69,1.69,0,0,0,74.15,41.43Z"/><path class="cls-1" d="M63.69,42.74a2.43,2.43,0,1,0,3.25,1.08,2.43,2.43,0,0,0-3.25-1.08Z"/><path class="cls-1" d="M50.21,28.35a1.7,1.7,0,0,0,.2-3.39,1.71,1.71,0,0,0-1.8,1.6h0A1.7,1.7,0,0,0,50.21,28.35Z"/><path class="cls-1" d="M50.19,39a2.42,2.42,0,1,0-2.28-2.56A2.41,2.41,0,0,0,50.19,39Z"/><path class="cls-1" d="M37.05,63.79a2.42,2.42,0,1,0-3.25-1.07h0A2.41,2.41,0,0,0,37.05,63.79Z"/><path class="cls-1" d="M51.76,42.57a4.13,4.13,0,1,0,5.71-1.19,4.17,4.17,0,0,0-2.25-.67A4.13,4.13,0,0,0,51.76,42.57Z"/><path class="cls-1" d="M58.93,59.82a4.12,4.12,0,1,0-3.68,6,4.28,4.28,0,0,0,1.86-.45A4.13,4.13,0,0,0,58.93,59.82Z"/><path class="cls-1" d="M66.14,59.54a2.42,2.42,0,1,0,.7,3.35A2.42,2.42,0,0,0,66.14,59.54Z"/><path class="cls-1" d="M74,53.34a2.06,2.06,0,1,0-2.17,1.94A2.05,2.05,0,0,0,74,53.34Z"/><path class="cls-1" d="M79.75,51.87A1.34,1.34,0,1,0,81,53.28h0A1.34,1.34,0,0,0,79.75,51.87Z"/><path class="cls-1" d="M74.37,65.1a1.7,1.7,0,1,0-1.86,2.84,1.7,1.7,0,1,0,1.86-2.84Z"/><path class="cls-1" d="M36.51,77.56a1.34,1.34,0,0,0-1.85.39,1.33,1.33,0,0,0,2.23,1.46,1.35,1.35,0,0,0-.38-1.85Z"/><path class="cls-1" d="M64.47,77.42a1.34,1.34,0,1,0,1.8.59h0a1.33,1.33,0,0,0-1.79-.59Z"/><path class="cls-1" d="M49,64a4.14,4.14,0,1,0-3.45,1.86A4.14,4.14,0,0,0,49,64Z"/><path class="cls-1" d="M40.73,70.29a2.06,2.06,0,1,0,.6,2.85A2.05,2.05,0,0,0,40.73,70.29Z"/><path class="cls-1" d="M50.35,78.18A1.7,1.7,0,1,0,52,80a1.7,1.7,0,0,0-1.6-1.8Z"/><path class="cls-1" d="M50.37,67.5a2.43,2.43,0,1,0,2.27,2.57h0A2.42,2.42,0,0,0,50.37,67.5Z"/><path class="cls-1" d="M60.29,70.12a2.06,2.06,0,1,0,2.77.91h0a2.07,2.07,0,0,0-2.77-.9Z"/><path class="cls-1" d="M6.43,97.72c1.93,0,3.27,1,3.27,3h2.52c0-3.45-2.54-5.11-5.83-5.11-4,0-6.39,2.2-6.39,6.84s2.35,6.83,6.39,6.83c3.33,0,5.83-1.61,5.83-5.06H9.8c0,1.92-1.33,3-3.37,3-2.68,0-3.91-1.48-3.91-4.56v-.38C2.52,99.26,3.77,97.72,6.43,97.72Z"/><path class="cls-1" d="M18.89,95.87l-5.14,13.2h2.54l1.06-2.86h6l1.09,2.86h2.66L22,95.87Zm-.77,8.25,1.35-3.62c.27-.71.75-2.25.85-2.52h.09c.1.27.58,1.83.85,2.52l1.35,3.62Z"/><path class="cls-1" d="M40.88,99.87c0-2.44-1.4-4-4.31-4h-7v13.2h2.46V104h4.1l2.5,5.1h2.7l-2.83-5.48A3.68,3.68,0,0,0,40.88,99.87Zm-4.5,2H32.06V98h4.32a1.78,1.78,0,0,1,2,1.9A1.86,1.86,0,0,1,36.38,101.89Z"/><path class="cls-1" d="M49.53,95.87H44.25v13.2h5.28c4,0,6.4-2.07,6.4-6.6S53.51,95.87,49.53,95.87Zm3.89,6.79c0,2.89-1.39,4.32-3.89,4.32H46.72V98h2.81c2.5,0,3.89,1.42,3.89,4.31Z"/><path class="cls-1" d="M62.39,95.87l-5.14,13.2h2.54l1.06-2.86h6L68,109.07h2.66l-5.14-13.2Zm-.77,8.25L63,100.5c.27-.71.75-2.25.85-2.52h.09c.1.27.58,1.83.85,2.52l1.35,3.62Z"/><path class="cls-1" d="M81.9,103.72c0,.25,0,.93,0,1l-.09,0c-.06-.08-.44-.75-.65-1.06l-5.74-7.87H73.1v13.2h2.37v-7.91c0-.32,0-1,0-1.06l.09-.06c.06.08.35.64.66,1.08L82,109.07h2.31V95.87H81.89v7.85Z"/><path class="cls-1" d="M94.08,95.64c-4.14,0-6.64,2.19-6.64,6.83s2.5,6.83,6.64,6.83,6.66-2.19,6.66-6.83S98.22,95.64,94.08,95.64Zm4.14,7c0,3-1.45,4.55-4.14,4.55S90,105.7,90,102.68v-.4c0-3,1.46-4.56,4.12-4.56s4.14,1.54,4.14,4.56Z"/><path class="cls-1" d="M11.48,6.21a4,4,0,0,1-2.84.88H6.37v4.79H5.25V.66H8.64a4,4,0,0,1,2.83.88,3,3,0,0,1,.95,2.34A3,3,0,0,1,11.48,6.21Zm-.21-2.33a2.2,2.2,0,0,0-.63-1.7,2.9,2.9,0,0,0-2-.58H6.37V6.13H8.64C10.39,6.13,11.27,5.38,11.27,3.88Z"/><path class="cls-1" d="M15.92,11.45a4,4,0,0,1-1.56-1.57,4.83,4.83,0,0,1-.57-2.39,4.72,4.72,0,0,1,.58-2.38,4,4,0,0,1,1.57-1.57A4.5,4.5,0,0,1,18.17,3a4.56,4.56,0,0,1,2.24.55A4,4,0,0,1,22,5.11a4.82,4.82,0,0,1,.57,2.38A4.72,4.72,0,0,1,22,9.87a4,4,0,0,1-1.59,1.58,4.56,4.56,0,0,1-2.24.55A4.4,4.4,0,0,1,15.92,11.45Zm3.82-.82a3,3,0,0,0,1.2-1.19,3.91,3.91,0,0,0,.46-1.95A3.91,3.91,0,0,0,21,5.54a3,3,0,0,0-1.19-1.18,3.42,3.42,0,0,0-3.21,0,2.91,2.91,0,0,0-1.18,1.18,3.91,3.91,0,0,0-.44,2,3.91,3.91,0,0,0,.44,1.95,2.86,2.86,0,0,0,1.17,1.19,3.4,3.4,0,0,0,3.2,0Z"/><path class="cls-1" d="M36.16,3.11l-2.74,8.77H32.29L29.87,4.53l-2.42,7.35H26.31L23.56,3.11H24.7l2.18,7.63,2.46-7.63h1.12l2.43,7.64,2.16-7.64Z"/><path class="cls-1" d="M45.58,7.93H38.31a3.49,3.49,0,0,0,.48,1.7,2.86,2.86,0,0,0,1.14,1.07,3.33,3.33,0,0,0,1.54.36,3.12,3.12,0,0,0,1.84-.53,2.5,2.5,0,0,0,1-1.43h1.18a3.67,3.67,0,0,1-1.37,2.09,4.19,4.19,0,0,1-2.64.81,4.39,4.39,0,0,1-2.21-.55,3.88,3.88,0,0,1-1.54-1.57,4.93,4.93,0,0,1-.55-2.39,5,5,0,0,1,.55-2.39,3.77,3.77,0,0,1,1.52-1.57A4.54,4.54,0,0,1,41.47,3a4.28,4.28,0,0,1,2.19.54A3.73,3.73,0,0,1,45.11,5a4.26,4.26,0,0,1,.5,2.05C45.61,7.43,45.6,7.72,45.58,7.93Zm-1.5-2.59A2.67,2.67,0,0,0,43,4.3,3.45,3.45,0,0,0,41.42,4a3.08,3.08,0,0,0-2.13.8,3.19,3.19,0,0,0-1,2.26h6.16A3.15,3.15,0,0,0,44.08,5.34Z"/><path class="cls-1" d="M49.92,3.4A3.62,3.62,0,0,1,51.79,3V4.12h-.3a2.82,2.82,0,0,0-2,.66A2.83,2.83,0,0,0,48.79,7v4.9H47.67V3.11h1.12V4.67A2.74,2.74,0,0,1,49.92,3.4Z"/><path class="cls-1" d="M61.37,7.93H54.1a3.49,3.49,0,0,0,.48,1.7,2.86,2.86,0,0,0,1.14,1.07,3.36,3.36,0,0,0,1.54.36,3.12,3.12,0,0,0,1.84-.53,2.5,2.5,0,0,0,1-1.43h1.19a3.73,3.73,0,0,1-1.38,2.09,4.19,4.19,0,0,1-2.64.81,4.39,4.39,0,0,1-2.21-.55,3.86,3.86,0,0,1-1.53-1.57A4.94,4.94,0,0,1,53,7.49a5,5,0,0,1,.55-2.39A3.77,3.77,0,0,1,55,3.53,4.54,4.54,0,0,1,57.26,3a4.28,4.28,0,0,1,2.19.54A3.73,3.73,0,0,1,60.9,5a4.15,4.15,0,0,1,.5,2.05C61.4,7.43,61.39,7.72,61.37,7.93Zm-1.5-2.59a2.65,2.65,0,0,0-1.11-1A3.52,3.52,0,0,0,57.21,4a3.08,3.08,0,0,0-2.13.8A3.23,3.23,0,0,0,54.1,7h6.16A3.15,3.15,0,0,0,59.87,5.34Z"/><path class="cls-1" d="M63.49,5.11A3.85,3.85,0,0,1,65,3.54,4.23,4.23,0,0,1,67.15,3a3.89,3.89,0,0,1,2.08.56A3.37,3.37,0,0,1,70.6,5V0h1.12V11.88H70.6v-2a3.4,3.4,0,0,1-1.32,1.5,3.89,3.89,0,0,1-2.15.58A4.14,4.14,0,0,1,65,11.44a3.88,3.88,0,0,1-1.49-1.59,5,5,0,0,1-.54-2.37A5,5,0,0,1,63.49,5.11Zm6.68.52A3.18,3.18,0,0,0,69,4.4,3.23,3.23,0,0,0,67.34,4a3.31,3.31,0,0,0-1.67.42,3,3,0,0,0-1.16,1.21,4,4,0,0,0-.43,1.89,4,4,0,0,0,.43,1.88,3,3,0,0,0,1.16,1.24,3.32,3.32,0,0,0,1.67.43A3.23,3.23,0,0,0,69,10.59a3.18,3.18,0,0,0,1.18-1.23,4,4,0,0,0,.43-1.87A4,4,0,0,0,70.17,5.63Z"/><path class="cls-1" d="M85.54,7.05a2.74,2.74,0,0,1,.66,1.82,2.82,2.82,0,0,1-.43,1.54,2.91,2.91,0,0,1-1.24,1.07,4.4,4.4,0,0,1-2,.4H78.69V.66h3.77a3.82,3.82,0,0,1,2.59.78,2.62,2.62,0,0,1,.89,2,2.54,2.54,0,0,1-.56,1.7,3,3,0,0,1-1.45.9A2.68,2.68,0,0,1,85.54,7.05ZM79.81,5.62h2.62a2.56,2.56,0,0,0,1.75-.54,1.84,1.84,0,0,0,.62-1.49,1.81,1.81,0,0,0-.62-1.46,2.7,2.7,0,0,0-1.8-.53H79.81Zm4.58,4.73a1.94,1.94,0,0,0,.68-1.59,2,2,0,0,0-.71-1.61,2.9,2.9,0,0,0-1.92-.6H79.81v4.38h2.68A2.82,2.82,0,0,0,84.39,10.35Z"/><path class="cls-1" d="M95.49,3.11,90.29,16H89.12l1.7-4.17-3.6-8.72h1.24l3,7.48,2.88-7.48Z"/></g></g></svg>