<svg xmlns="http://www.w3.org/2000/svg" viewBox="0 0 75.17 70"><defs><style>.cls-1{fill:#fff;}</style></defs><g id="Layer_2" data-name="Layer 2"><g id="Content"><path class="cls-1" d="M74.35,58.29,46.21,5.36c-.12-.23-.26-.44-.39-.66a6.92,6.92,0,0,0-3.18-3.52h0a9.94,9.94,0,0,0-5-1.17,10,10,0,0,0-5.06,1.17h0A6.92,6.92,0,0,0,29.35,4.7c-.13.22-.27.43-.39.66L.82,58.29A7,7,0,0,0,3.7,67.7l2.78,1.48A7,7,0,0,0,15.9,66.3L37.59,25.51,59.27,66.3a7,7,0,0,0,9.42,2.88l2.79-1.48A7,7,0,0,0,74.35,58.29Z"/><circle class="cls-1" cx="37.64" cy="50.07" r="8.72"/></g></g></svg>