<svg xmlns="http://www.w3.org/2000/svg" viewBox="0 0 97.4 90"><defs><style>.cls-1{fill:#1e2835;}</style></defs><g id="Layer_2" data-name="Layer 2"><g id="Content"><path class="cls-1" d="M26.69,44.66a6.57,6.57,0,0,0,6.18,6.94h.35a6.56,6.56,0,1,0-6.55-6.94Z"/><path class="cls-1" d="M2.24,43a2.12,2.12,0,1,0,2,2.23,2.12,2.12,0,0,0-2-2.23Z"/><path class="cls-1" d="M26.27,6.6a2.12,2.12,0,1,0-2.86-.94,2.11,2.11,0,0,0,2.86.94Z"/><path class="cls-1" d="M32.93,18.21a3.28,3.28,0,1,0-4.4-1.46,3.29,3.29,0,0,0,4.4,1.46Z"/><path class="cls-1" d="M10.54,26.19a2.7,2.7,0,1,0-.78-3.74h0A2.7,2.7,0,0,0,10.54,26.19Z"/><path class="cls-1" d="M14.52,41.81a3.28,3.28,0,1,0,3.09,3.45A3.26,3.26,0,0,0,14.52,41.81Z"/><path class="cls-1" d="M10.89,63.82A2.7,2.7,0,1,0,14.52,65a2.71,2.71,0,0,0-3.63-1.2Z"/><path class="cls-1" d="M23.62,35a3.86,3.86,0,1,0-1.11-5.34A3.86,3.86,0,0,0,23.62,35Z"/><path class="cls-1" d="M64,18a3.28,3.28,0,1,0-1-4.54A3.27,3.27,0,0,0,64,18Z"/><path class="cls-1" d="M70.74,6.38a2.12,2.12,0,1,0-.61-2.94h0A2.11,2.11,0,0,0,70.74,6.38Z"/><path class="cls-1" d="M64.53,38.42a6.56,6.56,0,0,0-.75,13.1h.38a6.55,6.55,0,0,0,.37-13.1Z"/><path class="cls-1" d="M35.08,34.58a6.57,6.57,0,1,0-.69-2.93A6.61,6.61,0,0,0,35.08,34.58Z"/><path class="cls-1" d="M86.5,26.18A2.7,2.7,0,1,0,82.87,25,2.7,2.7,0,0,0,86.5,26.18Z"/><path class="cls-1" d="M69.87,28.27A3.85,3.85,0,1,0,75.05,30a3.86,3.86,0,0,0-5.18-1.71Z"/><path class="cls-1" d="M48.45,5.39a2.7,2.7,0,1,0-2.54-2.85h0A2.69,2.69,0,0,0,48.45,5.39Z"/><path class="cls-1" d="M48.42,22.37a3.86,3.86,0,1,0-3.63-4.07A3.85,3.85,0,0,0,48.42,22.37Z"/><path class="cls-1" d="M27.53,61.73A3.85,3.85,0,1,0,22.35,60h0A3.86,3.86,0,0,0,27.53,61.73Z"/><path class="cls-1" d="M50.91,28a6.57,6.57,0,1,0,5.49-3A6.56,6.56,0,0,0,50.91,28Z"/><path class="cls-1" d="M62.31,55.42a6.56,6.56,0,1,0-5.85,9.51,6.71,6.71,0,0,0,2.95-.71A6.57,6.57,0,0,0,62.31,55.42Z"/><path class="cls-1" d="M73.77,55a3.86,3.86,0,1,0,1.11,5.34A3.86,3.86,0,0,0,73.77,55Z"/><path class="cls-1" d="M86.33,45.11a3.28,3.28,0,1,0-3.46,3.09A3.28,3.28,0,0,0,86.33,45.11Z"/><path class="cls-1" d="M95.4,42.78a2.12,2.12,0,1,0,2,2.24h0A2.13,2.13,0,0,0,95.4,42.78Z"/><path class="cls-1" d="M86.86,63.81a2.7,2.7,0,1,0,.78,3.74,2.72,2.72,0,0,0-.78-3.74Z"/><path class="cls-1" d="M26.66,83.62a2.12,2.12,0,1,0,.61,2.94,2.13,2.13,0,0,0-.61-2.94Z"/><path class="cls-1" d="M71.12,83.4a2.12,2.12,0,1,0,2.85.94h0a2.12,2.12,0,0,0-2.84-1Z"/><path class="cls-1" d="M46.48,62A6.57,6.57,0,1,0,41,65,6.55,6.55,0,0,0,46.48,62Z"/><path class="cls-1" d="M33.38,72.06a3.28,3.28,0,1,0,.94,4.53A3.28,3.28,0,0,0,33.38,72.06Z"/><path class="cls-1" d="M48.67,84.61a2.7,2.7,0,1,0,2.54,2.85,2.7,2.7,0,0,0-2.54-2.85Z"/><path class="cls-1" d="M48.7,67.63a3.86,3.86,0,1,0,3.61,4.08h0A3.85,3.85,0,0,0,48.7,67.63Z"/><path class="cls-1" d="M64.47,71.79a3.28,3.28,0,1,0,4.4,1.44h0a3.28,3.28,0,0,0-4.4-1.44Z"/></g></g></svg>