<svg xmlns="http://www.w3.org/2000/svg" viewBox="0 0 21 20.89"><defs><style>.cls-1{fill:none;stroke:#7a60ca;stroke-linecap:round;stroke-linejoin:round;}</style></defs><g id="Layer_2" data-name="Layer 2"><g id="Content"><path class="cls-1" d="M2.57,3.67H18.43a0,0,0,0,1,0,0V15.6a4.78,4.78,0,0,1-4.78,4.78H7.36A4.78,4.78,0,0,1,2.57,15.6V3.67A0,0,0,0,1,2.57,3.67Z"/><line class="cls-1" x1="0.5" y1="3.67" x2="20.5" y2="3.67"/><path class="cls-1" d="M13.67,3.67H7.33L8.05,1A.72.72,0,0,1,8.74.5h3.52A.72.72,0,0,1,13,1Z"/><line class="cls-1" x1="6.75" y1="8.16" x2="6.75" y2="15.9"/><line class="cls-1" x1="10.5" y1="8.16" x2="10.5" y2="15.9"/><line class="cls-1" x1="14.25" y1="8.16" x2="14.25" y2="15.9"/></g></g></svg>