<svg xmlns="http://www.w3.org/2000/svg" xmlns:xlink="http://www.w3.org/1999/xlink" viewBox="0 0 2318.1 2317.35"><defs><style>.cls-1,.cls-4,.cls-5,.cls-6,.cls-7{fill:none;}.cls-2{clip-path:url(#clip-path);}.cls-3{opacity:0.24;}.cls-4,.cls-5,.cls-6,.cls-7{stroke-miterlimit:10;stroke-width:3px;}.cls-4{stroke:url(#linear-gradient);}.cls-5{stroke:url(#linear-gradient-2);}.cls-6{stroke:url(#linear-gradient-3);}.cls-7{stroke:url(#linear-gradient-4);}</style><clipPath id="clip-path" transform="translate(180.33 -521.15)"><rect class="cls-1" width="1980" height="2612"/></clipPath><linearGradient id="linear-gradient" x1="-180.33" y1="1377.05" x2="2137.77" y2="1377.05" gradientUnits="userSpaceOnUse"><stop offset="0" stop-color="#e8e8e8" stop-opacity="0"/><stop offset="1" stop-color="#fff"/></linearGradient><linearGradient id="linear-gradient-2" x1="-58.91" y1="1771.13" x2="1835.61" y2="1771.13" xlink:href="#linear-gradient"/><linearGradient id="linear-gradient-3" x1="121.27" y1="1978.26" x2="1535.51" y2="1978.26" xlink:href="#linear-gradient"/><linearGradient id="linear-gradient-4" x1="360.41" y1="2117.24" x2="1236.53" y2="2117.24" xlink:href="#linear-gradient"/></defs><g id="Layer_2" data-name="Layer 2"><g id="Layer_1-2" data-name="Layer 1"><g class="cls-2"><g id="O3x2nK.tif" class="cls-3"><path class="cls-4" d="M2136.26,1680.57c-2.2,114.55-11,228.39-28,341.56q-10.7,71-23.86,141.62c-8.28,44.26-50.74,74.1-92.35,66.51-39.9-7.28-70.08-47.44-64.12-87.59,6.27-42.24,14.77-84.15,21.35-126.36a2258.12,2258.12,0,0,0,25.62-264c.93-25,2.6-50.06,2.9-75.1,1.58-134.83-19.53-265.59-70.47-391Q1830.08,1096,1682.69,953.17q-143.28-138.54-329.92-209.54A962.55,962.55,0,0,0,1077.58,683C860,667.72,659,718.15,475.76,836,332,928.39,220.87,1051.38,141.6,1203,93.39,1295.27,61.85,1393,45,1495.42c-8.52,51.72-11.39,104-12,156.4q-1.48,130.74-63.74,245.64c-23.66,43.78-79.42,57.39-117.36,29-29.15-21.82-39.59-65.37-22.4-99.69,17.93-35.79,34-72.42,39.45-112.09,4.64-33.46,5.84-67.51,6.93-101.35a1112.75,1112.75,0,0,1,41.23-268q73.86-261.06,258.7-459.92Q391,654.13,694.71,566.31c142.11-41.06,287-52.9,433.55-36.61q363.79,40.45,636.4,286.35c148.77,134.28,253.94,297.36,316.28,487.8,25.53,78,42.74,157.88,48.74,239.81C2133,1589.21,2134.14,1634.93,2136.26,1680.57Z" transform="translate(180.33 -521.15)"/><path class="cls-5" d="M1677.87,1704.15c1.48-80.81-3.47-160.74-26.45-238.75q-79.58-270.09-326.11-406.09c-99.45-54.91-206.79-80.56-320.17-80.65-287.3-.26-535.51,179.23-631.12,438.08A648.74,648.74,0,0,0,334,1613c-1.84,40.48-2.71,81.08-6.45,121.4-10.8,116.21-47.22,224.4-105.21,325.5-37.3,65-83.4,123.25-136.24,176.25-13.65,13.69-28.46,25.32-48.39,29.29-32.36,6.44-65.14-5.26-82.07-30.38-18.08-26.83-17.47-64.53,2.22-91.48,6-8.28,13.52-15.59,20.81-22.87q125.64-125.38,172.87-296.43c16.7-60.07,23.1-121.51,24.12-183.58,3.86-234,91.76-431.37,260.17-592.61,116.36-111.4,255-182.2,413.23-211.72,211-39.36,409.63-3.71,592.22,109.55s303.1,274.87,363.08,481.05a738.94,738.94,0,0,1,29.09,187.45c2.57,96.7-2.76,192.93-13.1,289.06-26.57,246.8-92.33,482.71-195.3,708.39-10.39,22.78-20.56,45.75-32.62,67.65-22.83,41.48-77.8,54.45-114.44,28.05-28.93-20.84-41-61-26.86-94.7,10.79-25.79,23.61-50.73,35.14-76.23a2133.63,2133.63,0,0,0,145-444.43c15.2-72.88,27.52-146.3,33.61-220.6C1669.47,1815.83,1673.56,1760,1677.87,1704.15Z" transform="translate(180.33 -521.15)"/><path class="cls-6" d="M1007.07,1119.52c249.52-.3,469.16,183.32,516.55,424.84,10.16,51.78,12.08,103.77,9.13,156.21-1.86,33.11-2.91,66.27-5,99.37-6.06,98-21.25,194.76-42.69,290.55-57.53,257-162.63,493-312.21,709.6-22,31.79-55.86,42.21-91.1,34.47-46.61-10.24-69.85-67.35-46.28-111.87,6.53-12.33,14.67-23.84,22.53-35.42q208-306.66,281.55-669.81c17.74-86.69,29.53-174.35,33.08-262.93,1.44-36.08,3.59-72.18,3.59-108.27,0-180-132.15-335.63-309.89-363.66C858.64,1249.84,672.89,1386.93,639,1585.33c-5.8,33.9-4.92,69-6.4,103.56-3.63,84.24-15.56,167.17-37.4,248.65Q537,2154.9,399.46,2333c-41.47,54-88.23,102.94-137.86,149.38-22.65,21.19-48.47,30.81-78.9,24.18-27.89-6.07-48.19-22.3-56.08-50.59-8-28.78-4.1-55.92,17.27-78.16,19.91-20.73,41.31-40,61.31-60.67q154.1-159.07,222.93-369.69c31.83-96.65,46.48-196.07,47.06-297.85,1.52-266,193.26-479.34,443.94-522C948.07,1122.7,977.74,1122.12,1007.07,1119.52Z" transform="translate(180.33 -521.15)"/><path class="cls-7" d="M1234.83,1685.7c-4,113.76-17,226.32-41.93,337.45q-78.87,351.13-292.21,640.9c-31.39,42.75-65.6,83.52-99.9,124-26.92,31.8-78.17,35.18-110.18,9.39-30.86-24.89-36.71-74.62-11.4-107.94,18.27-24.06,38.62-46.53,57.46-70.18q191-239.88,277.52-534.1A1526.65,1526.65,0,0,0,1067,1819c6.17-57.26,10.06-114.61,8.85-172.17-1.1-52.3-53.68-85-100.82-63-27.27,12.77-40.18,35.64-41.27,65.52-1.2,33.14-1.91,66.32-4,99.41-8.19,128-34.51,252.37-77.54,373.16q-95,266.83-285.17,476.93c-22.3,24.55-45.63,48.18-68.81,71.93-22.11,22.65-49.61,28.82-79.4,21.6C363,2678.89,343,2608,382.58,2565.13c20.48-22.23,42.24-43.29,62.64-65.6q183.25-200.34,268.29-458.29c25-75.77,43.5-153.2,51.71-232.59,5.54-53.46,8-107.26,10.83-161,5-93.45,47.55-163.38,131.43-205,133.51-66.31,298,18.81,323.09,165.88a349,349,0,0,1,4.11,39.54C1235.37,1660.59,1234.83,1673.16,1234.83,1685.7Z" transform="translate(180.33 -521.15)"/></g></g></g></g></svg>