<svg xmlns="http://www.w3.org/2000/svg" viewBox="0 0 20 16.25"><defs><style>.cls-1{fill:#fff;}</style></defs><g id="Layer_2" data-name="Layer 2"><g id="Content"><path class="cls-1" d="M20,1.92a8.18,8.18,0,0,1-2.36.65A4.13,4.13,0,0,0,19.45.3a8.32,8.32,0,0,1-2.61,1A4.1,4.1,0,0,0,9.85,5,11.67,11.67,0,0,1,1.39.75,4.13,4.13,0,0,0,2.66,6.23,4.2,4.2,0,0,1,.8,5.72v0a4.11,4.11,0,0,0,3.29,4A4.2,4.2,0,0,1,3,9.94a3.94,3.94,0,0,1-.77-.08,4.1,4.1,0,0,0,3.83,2.85A8.22,8.22,0,0,1,1,14.47a7.93,7.93,0,0,1-1-.06,11.65,11.65,0,0,0,6.29,1.84A11.59,11.59,0,0,0,18,4.58c0-.18,0-.36,0-.53A8.31,8.31,0,0,0,20,1.92Z"/></g></g></svg>